<?xml version="1.0" encoding="utf-8"?>
<svg viewBox="0 0 500 500" xmlns="http://www.w3.org/2000/svg">
  <g transform="matrix(0.512966, 0, 0, -0.503035, -8.658195, 512.973755)" fill="#000000" stroke="none" style="">
    <path d="M164 922 c-23 -15 -34 -53 -34 -122 0 -70 -1 -72 -49 -136 -40 -52 -48 -70 -42 -87 18 -50 106 -55 118 -6 3 11 21 51 39 89 l33 70 51 0 c27 0 50 -3 50 -6 0 -3 -7 -33 -15 -66 -9 -33 -13 -68 -10 -79 9 -28 50 -52 74 -44 43 13 51 33 51 116 l0 79 70 0 70 0 0 -79 c0 -83 8 -103 51 -116 24 -8 65 16 74 44 3 11 -1 46 -10 79 -8 33 -15 63 -15 66 0 3 23 6 50 6 l51 0 33 -70 c18 -38 36 -78 39 -89 12 -49 100 -44 118 6 6 17 -2 35 -42 87 -48 64 -49 66 -49 136 0 69 -11 107 -34 122 -6 4 -157 8 -336 8 -179 0 -330 -4 -336 -8z m90 -68 c19 -19 4 -57 -21 -52 -26 5 -39 34 -24 52 17 20 26 20 45 0z m146 -17 c0 -17 -20 -37 -37 -37 -7 0 -17 9 -23 19 -14 28 13 55 41 41 10 -6 19 -16 19 -23z" style="fill: rgb(40, 116, 240); stroke-linecap: square; stroke-linejoin: round; fill-rule: nonzero; paint-order: fill; stroke: rgb(0, 0, 0); stroke-width: 0px;"/>
    <path d="M146 454 c-23 -22 -20 -33 19 -100 98 -166 283 -252 452 -210 37 9 93 32 123 50 l55 35 5 -77 c4 -66 8 -77 24 -80 36 -7 46 24 46 147 0 64 -5 123 -10 131 -7 12 -35 16 -123 18 -96 3 -115 1 -127 -13 -26 -32 -1 -49 81 -55 l74 -5 -48 -32 c-89 -58 -221 -69 -320 -25 -62 27 -147 109 -177 169 -32 66 -47 75 -74 47z" style="fill: rgb(40, 116, 240); stroke-linecap: square; stroke-linejoin: round; fill-rule: nonzero; paint-order: fill; stroke: rgb(0, 0, 0); stroke-width: 0px;"/>
  </g>
</svg>