<svg width="84" height="82" xmlns="http://www.w3.org/2000/svg">
 <g>
  <title>Layer 1</title>
  <g stroke="null" id="svg_1">
   <g stroke="null" id="svg_2">
    <g stroke="null" id="svg_3">
     <polygon stroke="null" fill="#ffffff" id="svg_4" points="22.0999813079834,11.999999110950966 22.0999813079834,45.5056353651529 70.57138061523438,45.5056353651529 82.9999771118164,16.78649350359717 82.9999771118164,11.999999110950966 "/>
    </g>
   </g>
   <g stroke="null" id="svg_5">
    <g stroke="null" id="svg_6">
     <path stroke="null" fill="#ffffff" id="svg_7" d="m24.58577,63.45503c-2.74118,0 -4.97141,2.14727 -4.97141,4.7865s2.23022,4.7865 4.97141,4.7865s4.97141,-2.14727 4.97141,-4.7865s-2.23022,-4.7865 -4.97141,-4.7865z"/>
    </g>
   </g>
   <g stroke="null" id="svg_8">
    <g stroke="null" id="svg_9">
     <path stroke="null" fill="#ffffff" id="svg_10" d="m61.87139,63.45503c-2.74118,0 -4.97141,2.14727 -4.97141,4.7865s2.23022,4.7865 4.97141,4.7865s4.97141,-2.14727 4.97141,-4.7865s-2.23006,-4.7865 -4.97141,-4.7865z"/>
    </g>
   </g>
   <g stroke="null" id="svg_11">
    <g stroke="null" id="svg_12">
     <path stroke="null" fill="#ffffff" id="svg_13" d="m20.85718,56.2752c-2.05588,0 -3.72859,-1.61049 -3.72859,-3.58992l0,-40.68529l-21.12859,0l0,7.17982l13.67141,0l0,33.50563c0,5.93842 5.01796,10.76974 11.18579,10.76974l52.2,0l0,-7.17982l-52.2,0l0,-0.00016l-0.00001,0z"/>
    </g>
   </g>
   <g stroke="null" id="svg_14"/>
   <g stroke="null" id="svg_15"/>
   <g stroke="null" id="svg_16"/>
   <g stroke="null" id="svg_17"/>
   <g stroke="null" id="svg_18"/>
   <g stroke="null" id="svg_19"/>
   <g stroke="null" id="svg_20"/>
   <g stroke="null" id="svg_21"/>
   <g stroke="null" id="svg_22"/>
   <g stroke="null" id="svg_23"/>
   <g stroke="null" id="svg_24"/>
   <g stroke="null" id="svg_25"/>
   <g stroke="null" id="svg_26"/>
   <g stroke="null" id="svg_27"/>
   <g stroke="null" id="svg_28"/>
  </g>
 </g>

</svg>