<svg width="455" height="453" xmlns="http://www.w3.org/2000/svg" xml:space="preserve" version="1.1">

 <g>
  <title>Layer 1</title>
  <g id="svg_1">
   <g id="svg_2">
    <path fill="#ffffff" id="svg_3" d="m375.18109,349.41955c-6.656,-3.072 -14.336,-4.608 -21.504,-4.608l-208.896,0l-7.68,-45.056l263.168,0l54.272,-180.736l-348.16,0l-11.776,-67.072l-93.696,0l0,32.256l66.048,0l45.568,266.24c-26.624,13.312 -37.376,45.568 -24.576,72.192s45.568,37.376 72.192,24.576c25.6,-12.8 36.864,-43.52 25.6,-70.144l118.784,0c-11.776,27.136 0.512,58.88 27.648,70.656c27.136,11.776 58.88,-0.512 70.656,-27.648c12.288,-27.136 -0.512,-58.88 -27.648,-70.656z"/>
   </g>
  </g>
  <g id="svg_4"/>
  <g id="svg_5"/>
  <g id="svg_6"/>
  <g id="svg_7"/>
  <g id="svg_8"/>
  <g id="svg_9"/>
  <g id="svg_10"/>
  <g id="svg_11"/>
  <g id="svg_12"/>
  <g id="svg_13"/>
  <g id="svg_14"/>
  <g id="svg_15"/>
  <g id="svg_16"/>
  <g id="svg_17"/>
  <g id="svg_18"/>
 </g>
</svg>