<svg width="500" height="500" xmlns="http://www.w3.org/2000/svg">

 <g>
  <title>Layer 1</title>
  <g id="svg_1" fill="#000000" transform="matrix(0.512966 0 0 -0.503035 -8.6582 512.974)">
   <path id="svg_2" fill="#2874f0" d="m164,922c-23,-15 -34,-53 -34,-122c0,-70 -1,-72 -49,-136c-40,-52 -48,-70 -42,-87c18,-50 106,-55 118,-6c3,11 21,51 39,89l33,70l51,0c27,0 50,-3 50,-6c0,-3 -7,-33 -15,-66c-9,-33 -13,-68 -10,-79c9,-28 50,-52 74,-44c43,13 51,33 51,116l0,79l70,0l70,0l0,-79c0,-83 8,-103 51,-116c24,-8 65,16 74,44c3,11 -1,46 -10,79c-8,33 -15,63 -15,66c0,3 23,6 50,6l51,0l33,-70c18,-38 36,-78 39,-89c12,-49 100,-44 118,6c6,17 -2,35 -42,87c-48,64 -49,66 -49,136c0,69 -11,107 -34,122c-6,4 -157,8 -336,8c-179,0 -330,-4 -336,-8zm90,-68c19,-19 4,-57 -21,-52c-26,5 -39,34 -24,52c17,20 26,20 45,0zm146,-17c0,-17 -20,-37 -37,-37c-7,0 -17,9 -23,19c-14,28 13,55 41,41c10,-6 19,-16 19,-23z"/>
   <path id="svg_3" fill="#2874f0" d="m146,454c-23,-22 -20,-33 19,-100c98,-166 283,-252 452,-210c37,9 93,32 123,50l55,35l5,-77c4,-66 8,-77 24,-80c36,-7 46,24 46,147c0,64 -5,123 -10,131c-7,12 -35,16 -123,18c-96,3 -115,1 -127,-13c-26,-32 -1,-49 81,-55l74,-5l-48,-32c-89,-58 -221,-69 -320,-25c-62,27 -147,109 -177,169c-32,66 -47,75 -74,47z"/>
  </g>
 </g>
</svg>